<svg width="16" height="16" viewBox="0 0 16 16" fill="none" xmlns="http://www.w3.org/2000/svg">
<path fill-rule="evenodd" clip-rule="evenodd" d="M8.60384 7.21664V7.19167C8.59874 7.20024 8.59308 7.20832 8.58766 7.21664H8.60384ZM14.8174 0H1.18196C0.52942 0 0 0.513228 0 1.14618V14.8537C0 15.4862 0.52942 15.9999 1.18196 15.9999H14.8174C15.4706 15.9999 16 15.4862 16 14.8537V1.14618C16 0.513228 15.4706 0 14.8174 0ZM4.84976 13.3934H2.43292V6.16915H4.84976V13.3934ZM3.64162 5.18238H3.62554C2.8148 5.18238 2.29044 4.62753 2.29044 3.9341C2.29044 3.22548 2.83122 2.68607 3.65736 2.68607C4.4842 2.68607 4.9928 3.22548 5.00898 3.9341C5.00898 4.62753 4.4842 5.18238 3.64162 5.18238ZM13.5639 13.3934H11.1474V9.52808C11.1474 8.55722 10.7979 7.89465 9.9232 7.89465C9.25582 7.89465 8.8582 8.34127 8.68324 8.77295C8.61924 8.92745 8.60384 9.14291 8.60384 9.35864V13.3934H6.18712C6.18712 13.3934 6.21872 6.84617 6.18712 6.16915H8.60384V7.19167C8.92514 6.69974 9.4993 5.99872 10.7821 5.99872C12.372 5.99872 13.5639 7.03152 13.5639 9.25114V13.3934Z" fill="#C6CACC"/>
</svg>
