<svg width="20" height="14" viewBox="0 0 20 14" fill="none" xmlns="http://www.w3.org/2000/svg">
<path fill-rule="evenodd" clip-rule="evenodd" d="M15.9979 2.28256C15.9854 2.27644 15.9726 2.26248 15.9602 2.25024C15.2123 1.58913 14.3335 1.2735 13.3229 1.31121L13.2919 1.24338C13.2981 1.23726 13.3043 1.23726 13.3105 1.23726C14.227 1.03844 14.7694 0.834479 14.9314 0.612391C14.9877 0.43316 14.9195 0.334237 14.7195 0.309502C14.258 0.365092 13.834 0.45764 13.4537 0.600151C13.9341 0.309502 14.121 0.105536 14.015 0C13.5412 0.012257 13.0302 0.241927 12.4935 0.693447C12.693 0.371212 12.7681 0.197846 12.7184 0.167246C12.4627 0.334237 12.238 0.513723 12.0449 0.704939C11.6395 1.13172 11.3153 1.52742 11.0659 1.88663L11.0535 1.91723C10.4116 2.90032 9.96273 3.88929 9.69443 4.89785L9.59489 4.97253L9.57633 4.99016C9.18958 4.53278 8.7282 4.14958 8.17362 3.83935C7.51904 3.43803 6.75202 3.05458 5.86652 2.68388C4.90038 2.214 3.92148 1.82419 2.93009 1.52153C2.9242 2.56659 3.46633 3.40105 4.54501 4.00733V4.02569C4.16449 4.01883 3.79677 4.0749 3.4414 4.18067C3.50968 5.15129 4.23948 5.81902 5.62336 6.18972L5.61692 6.20808C5.07467 6.17821 4.62587 6.35744 4.27673 6.72816C4.73188 7.56923 5.53605 7.97055 6.70241 7.9397C6.47114 8.05135 6.29064 8.17402 6.17216 8.31115C5.96017 8.52149 5.89143 8.76952 5.96017 9.05306C6.20942 9.47985 6.65845 9.67696 7.31938 9.64684L7.35653 9.68993C7.35041 9.69605 7.34408 9.70243 7.33797 9.70829C6.19698 10.8217 4.81919 11.3224 3.20415 11.2176L3.17936 11.2298C2.19454 11.223 1.14087 10.7786 0 9.88802C1.1471 11.4456 2.66825 12.5709 4.55135 13.2766C6.70806 13.9507 8.86558 13.9999 11.0162 13.4245H11.0535C13.1424 12.8554 14.9128 11.6867 16.3714 9.91887C17.0447 8.99137 17.4689 8.10767 17.6374 7.25973C18.7282 7.29671 19.5138 6.99995 20.0001 6.3697L19.9881 6.35059C19.626 6.47375 18.9154 6.43776 17.8615 6.23354V6.12189C17.8615 6.11652 17.8615 6.11652 17.8679 6.12189C19.0215 5.99848 19.701 5.64664 19.9192 5.06437C19.1146 5.36161 18.3228 5.36676 17.5373 5.08958C17.3943 4.06266 16.8832 3.12926 15.9979 2.28256Z" fill="#C6CACC"/>
</svg>
